<svg id="visual" viewBox="0 0 1920 1080" width="1920" height="1080"
  xmlns="http://www.w3.org/2000/svg" xmlns:xlink="http://www.w3.org/1999/xlink" version="1.1">
  <rect x="0" y="0" width="1920" height="1080" fill="#e6e6e6"></rect>
  <defs>
    <linearGradient id="grad1_0" x1="43.8%" y1="100%" x2="100%" y2="0%">
      <stop offset="14.444444444444446%" stop-color="#e6e6e6" stop-opacity="1"></stop>
      <stop offset="85.55555555555554%" stop-color="#e6e6e6" stop-opacity="1"></stop>
    </linearGradient>
  </defs>
  <defs>
    <linearGradient id="grad2_0" x1="0%" y1="100%" x2="56.3%" y2="0%">
      <stop offset="14.444444444444446%" stop-color="#e6e6e6" stop-opacity="1"></stop>
      <stop offset="85.55555555555554%" stop-color="#e6e6e6" stop-opacity="1"></stop>
    </linearGradient>
  </defs>
  <g transform="translate(1920, 1080)">
    <path
      d="M-702 0C-691.1 -93.1 -680.2 -186.2 -643.9 -266.7C-607.7 -347.3 -546.1 -415.3 -481.5 -481.5C-417 -547.7 -349.4 -612.1 -268.6 -648.6C-187.9 -685 -93.9 -693.5 0 -702L0 0Z"
      fill="#b78aff"></path>
  </g>
  <g transform="translate(0, 0)">
    <path
      d="M702 0C678 89.6 654 179.1 613.5 254.1C572.9 329.1 515.9 389.5 458.9 458.9C402 528.3 345.1 606.6 268.6 648.6C192.2 690.6 96.1 696.3 0 702L0 0Z"
      fill="#b78aff"></path>
  </g>
</svg>